<mxfile host="app.diagrams.net" modified="2022-07-20T00:47:24.786Z" agent="5.0 (Macintosh; Intel Mac OS X 10_10_5) AppleWebKit/537.36 (KHTML, like Gecko) Chrome/87.0.4280.88 Safari/537.36" etag="SqPXyQdiEfybnvLbHuI1" version="20.1.2" type="github">
  <diagram id="C5RBs43oDa-KdzZeNtuy" name="Page-1">
    <mxGraphModel dx="1426" dy="690" grid="1" gridSize="10" guides="1" tooltips="1" connect="1" arrows="1" fold="1" page="1" pageScale="1" pageWidth="827" pageHeight="1169" math="0" shadow="0">
      <root>
        <mxCell id="WIyWlLk6GJQsqaUBKTNV-0" />
        <mxCell id="WIyWlLk6GJQsqaUBKTNV-1" parent="WIyWlLk6GJQsqaUBKTNV-0" />
        <mxCell id="7GW4zAh1jI5dQ2bVlqKZ-1" value="Inicio" style="strokeWidth=2;html=1;shape=mxgraph.flowchart.start_2;whiteSpace=wrap;" vertex="1" parent="WIyWlLk6GJQsqaUBKTNV-1">
          <mxGeometry x="325" y="60" width="130" height="110" as="geometry" />
        </mxCell>
        <mxCell id="7GW4zAh1jI5dQ2bVlqKZ-29" style="edgeStyle=orthogonalEdgeStyle;rounded=0;orthogonalLoop=1;jettySize=auto;html=1;entryX=0.5;entryY=0;entryDx=0;entryDy=0;fontFamily=Helvetica;fontSize=12;fontColor=default;" edge="1" parent="WIyWlLk6GJQsqaUBKTNV-1" source="7GW4zAh1jI5dQ2bVlqKZ-3" target="7GW4zAh1jI5dQ2bVlqKZ-8">
          <mxGeometry relative="1" as="geometry" />
        </mxCell>
        <mxCell id="7GW4zAh1jI5dQ2bVlqKZ-3" value="Ingrese nombre del dinosaurio" style="shape=parallelogram;html=1;strokeWidth=2;perimeter=parallelogramPerimeter;whiteSpace=wrap;rounded=1;arcSize=12;size=0.23;" vertex="1" parent="WIyWlLk6GJQsqaUBKTNV-1">
          <mxGeometry x="260" y="200" width="270" height="50" as="geometry" />
        </mxCell>
        <mxCell id="7GW4zAh1jI5dQ2bVlqKZ-26" style="edgeStyle=orthogonalEdgeStyle;rounded=0;orthogonalLoop=1;jettySize=auto;html=1;entryX=0.5;entryY=0;entryDx=0;entryDy=0;fontFamily=Helvetica;fontSize=12;fontColor=default;" edge="1" parent="WIyWlLk6GJQsqaUBKTNV-1" source="7GW4zAh1jI5dQ2bVlqKZ-7" target="7GW4zAh1jI5dQ2bVlqKZ-9">
          <mxGeometry relative="1" as="geometry" />
        </mxCell>
        <mxCell id="7GW4zAh1jI5dQ2bVlqKZ-7" value="Peso del dinosaurio * 2.2" style="rounded=1;whiteSpace=wrap;html=1;absoluteArcSize=1;arcSize=14;strokeWidth=2;fontFamily=Helvetica;fontSize=12;fontColor=default;" vertex="1" parent="WIyWlLk6GJQsqaUBKTNV-1">
          <mxGeometry x="255" y="360" width="262.5" height="50" as="geometry" />
        </mxCell>
        <mxCell id="7GW4zAh1jI5dQ2bVlqKZ-22" style="edgeStyle=orthogonalEdgeStyle;rounded=0;orthogonalLoop=1;jettySize=auto;html=1;entryX=0.53;entryY=-0.04;entryDx=0;entryDy=0;entryPerimeter=0;fontFamily=Helvetica;fontSize=12;fontColor=default;" edge="1" parent="WIyWlLk6GJQsqaUBKTNV-1" source="7GW4zAh1jI5dQ2bVlqKZ-8" target="7GW4zAh1jI5dQ2bVlqKZ-7">
          <mxGeometry relative="1" as="geometry" />
        </mxCell>
        <mxCell id="7GW4zAh1jI5dQ2bVlqKZ-8" value="Ingrese peso en libras del dinosaurio" style="shape=parallelogram;html=1;strokeWidth=2;perimeter=parallelogramPerimeter;whiteSpace=wrap;rounded=1;arcSize=12;size=0.23;" vertex="1" parent="WIyWlLk6GJQsqaUBKTNV-1">
          <mxGeometry x="260" y="280" width="270" height="50" as="geometry" />
        </mxCell>
        <mxCell id="7GW4zAh1jI5dQ2bVlqKZ-25" style="edgeStyle=orthogonalEdgeStyle;rounded=0;orthogonalLoop=1;jettySize=auto;html=1;entryX=0.5;entryY=0;entryDx=0;entryDy=0;fontFamily=Helvetica;fontSize=12;fontColor=default;" edge="1" parent="WIyWlLk6GJQsqaUBKTNV-1" source="7GW4zAh1jI5dQ2bVlqKZ-9" target="7GW4zAh1jI5dQ2bVlqKZ-10">
          <mxGeometry relative="1" as="geometry" />
        </mxCell>
        <mxCell id="7GW4zAh1jI5dQ2bVlqKZ-9" value="Ingrese longitud en pies del dinosaurio" style="shape=parallelogram;html=1;strokeWidth=2;perimeter=parallelogramPerimeter;whiteSpace=wrap;rounded=1;arcSize=12;size=0.23;" vertex="1" parent="WIyWlLk6GJQsqaUBKTNV-1">
          <mxGeometry x="251.25" y="450" width="270" height="50" as="geometry" />
        </mxCell>
        <mxCell id="7GW4zAh1jI5dQ2bVlqKZ-27" style="edgeStyle=orthogonalEdgeStyle;rounded=0;orthogonalLoop=1;jettySize=auto;html=1;entryX=0.5;entryY=0;entryDx=0;entryDy=0;fontFamily=Helvetica;fontSize=12;fontColor=default;" edge="1" parent="WIyWlLk6GJQsqaUBKTNV-1" source="7GW4zAh1jI5dQ2bVlqKZ-10" target="7GW4zAh1jI5dQ2bVlqKZ-17">
          <mxGeometry relative="1" as="geometry" />
        </mxCell>
        <mxCell id="7GW4zAh1jI5dQ2bVlqKZ-10" value="Longitud del dinosaurio * 0.3" style="rounded=1;whiteSpace=wrap;html=1;absoluteArcSize=1;arcSize=14;strokeWidth=2;fontFamily=Helvetica;fontSize=12;fontColor=default;" vertex="1" parent="WIyWlLk6GJQsqaUBKTNV-1">
          <mxGeometry x="258.75" y="530" width="255" height="50" as="geometry" />
        </mxCell>
        <mxCell id="7GW4zAh1jI5dQ2bVlqKZ-30" style="edgeStyle=orthogonalEdgeStyle;rounded=0;orthogonalLoop=1;jettySize=auto;html=1;entryX=0.454;entryY=0.009;entryDx=0;entryDy=0;entryPerimeter=0;fontFamily=Helvetica;fontSize=12;fontColor=default;" edge="1" parent="WIyWlLk6GJQsqaUBKTNV-1" source="7GW4zAh1jI5dQ2bVlqKZ-17" target="7GW4zAh1jI5dQ2bVlqKZ-18">
          <mxGeometry relative="1" as="geometry" />
        </mxCell>
        <mxCell id="7GW4zAh1jI5dQ2bVlqKZ-17" value="Mostrar nombre, peso, longitud del dinosaurio&amp;nbsp;" style="rounded=1;whiteSpace=wrap;html=1;absoluteArcSize=1;arcSize=14;strokeWidth=2;fontFamily=Helvetica;fontSize=12;fontColor=default;" vertex="1" parent="WIyWlLk6GJQsqaUBKTNV-1">
          <mxGeometry x="258.75" y="610" width="255" height="50" as="geometry" />
        </mxCell>
        <mxCell id="7GW4zAh1jI5dQ2bVlqKZ-18" value="Final" style="strokeWidth=2;html=1;shape=mxgraph.flowchart.start_2;whiteSpace=wrap;" vertex="1" parent="WIyWlLk6GJQsqaUBKTNV-1">
          <mxGeometry x="324.38" y="690" width="141.25" height="110" as="geometry" />
        </mxCell>
        <mxCell id="7GW4zAh1jI5dQ2bVlqKZ-19" value="" style="endArrow=classic;html=1;rounded=0;fontFamily=Helvetica;fontSize=12;fontColor=default;exitX=0.5;exitY=1;exitDx=0;exitDy=0;exitPerimeter=0;entryX=0.478;entryY=0;entryDx=0;entryDy=0;entryPerimeter=0;" edge="1" parent="WIyWlLk6GJQsqaUBKTNV-1" source="7GW4zAh1jI5dQ2bVlqKZ-1" target="7GW4zAh1jI5dQ2bVlqKZ-3">
          <mxGeometry width="50" height="50" relative="1" as="geometry">
            <mxPoint x="430" y="160" as="sourcePoint" />
            <mxPoint x="380" y="210" as="targetPoint" />
          </mxGeometry>
        </mxCell>
      </root>
    </mxGraphModel>
  </diagram>
</mxfile>
